# xmcd
#
# Track frame offsets:
#	225
#	16235
#	27420
#	30720
#	44285
#	56745
#	57560
#	67965
#	79845
#	82845
#	101895
#	111795
#	113190
#	126765
#	144660
#	152670
#	162120
#	178860
#	179780
#	186530
#	197745
#	211110
#	224220
#	234960
#	247440
#
# Disc length: 3393 seconds
#
# Revision: 1
# Processed by: cddbd v1.5PL3 Copyright (c) Steve Scherf et al.
# Submitted via: audiograbber 1.82.02
#
DISCID=790d3e19
DTITLE=Mike Boddé - Hè ja, mmm fijn
DYEAR=2001
DGENRE=Cabaret
TTITLE0=Marleen
TTITLE1=Ik Overleef
TTITLE2=Mary-Lou
TTITLE3=Winnie-The-Pooh's Off Day
TTITLE4=Blues
TTITLE5=Count Basie
TTITLE6=Soldaat
TTITLE7=Stap Voor Stap
TTITLE8=Vader
TTITLE9=Licht En Geluid
TTITLE10=Someone To Come Home To
TTITLE11=Jingle
TTITLE12=Je Moet
TTITLE13=Liefje - Pokkewijf
TTITLE14=Polonaise In As
TTITLE15=Ah Brasil
TTITLE16=Jaap Speelt Gitaar
TTITLE17=Babette
TTITLE18=Someone To Come Home To (Rep.)
TTITLE19=Winston En De Vrouwtjes
TTITLE20=Strijkorkest
TTITLE21=Kijken Naar Het Bouwen
TTITLE22=We Are Seven
TTITLE23=Het Bed
TTITLE24=Rotterdam
EXTD=
EXTT0=
EXTT1=
EXTT2=
EXTT3=
EXTT4=
EXTT5=
EXTT6=
EXTT7=
EXTT8=
EXTT9=
EXTT10=
EXTT11=
EXTT12=
EXTT13=
EXTT14=
EXTT15=
EXTT16=
EXTT17=
EXTT18=
EXTT19=
EXTT20=
EXTT21=
EXTT22=
EXTT23=
EXTT24=
PLAYORDER=
